  0
SECTION
  2
HEADER
  9
$ACADVER
  1
AC1003
  9
$EXTMIN
 10
0
 20
5.18750000000005
  9
$EXTMAX
 10
15.25
 20
0
  9
$INSUNITS
 70
1
  9
$INSBASE
 10
7.62500000000002
 20
2.59375000000003
999
Created with OMAX Layout for Windows. (www.omax.com) 4/7/2017
  0
ENDSEC
  0
SECTION
  2
TABLES
  0
TABLE
  2
LAYER
 70
    10
  0
LAYER
  2
0
 70
     0
 62
     7
  6
CONTINUOUS
  0
LAYER
  2
1
 70
     0
 62
     7
  6
CONTINUOUS
  0
LAYER
  2
2
 70
     0
 62
     7
  6
CONTINUOUS
  0
LAYER
  2
3
 70
     0
 62
     7
  6
CONTINUOUS
  0
LAYER
  2
4
 70
     0
 62
     7
  6
CONTINUOUS
  0
LAYER
  2
5
 70
     0
 62
     7
  6
CONTINUOUS
  0
LAYER
  2
6
 70
     0
 62
     7
  6
CONTINUOUS
  0
LAYER
  2
7
 70
     0
 62
     7
  6
CONTINUOUS
  0
LAYER
  2
8
 70
     0
 62
     7
  6
CONTINUOUS
  0
LAYER
  2
9
 70
     0
 62
     7
  6
CONTINUOUS
  0
LAYER
  2
10
 70
     0
 62
     7
  6
CONTINUOUS
  0
LAYER
  2
11
 70
     0
 62
     7
  6
CONTINUOUS
  0
LAYER
  2
12
 70
     0
 62
     7
  6
CONTINUOUS
  0
LAYER
  2
13
 70
     0
 62
     7
  6
CONTINUOUS
  0
LAYER
  2
14
 70
     0
 62
     7
  6
CONTINUOUS
  0
LAYER
  2
15
 70
     0
 62
     7
  6
CONTINUOUS
  0
LAYER
  2
16
 70
     0
 62
     7
  6
CONTINUOUS
  0
LAYER
  2
17
 70
     0
 62
     7
  6
CONTINUOUS
  0
LAYER
  2
18
 70
     0
 62
     7
  6
CONTINUOUS
  0
LAYER
  2
19
 70
     0
 62
     7
  6
CONTINUOUS
  0
LAYER
  2
20
 70
     0
 62
     7
  6
CONTINUOUS
  0
LAYER
  2
21
 70
     0
 62
     7
  6
CONTINUOUS
  0
LAYER
  2
22
 70
     0
 62
     7
  6
CONTINUOUS
  0
LAYER
  2
23
 70
     0
 62
     7
  6
CONTINUOUS
  0
LAYER
  2
24
 70
     0
 62
     7
  6
CONTINUOUS
  0
LAYER
  2
25
 70
     0
 62
     7
  6
CONTINUOUS
  0
LAYER
  2
26
 70
     0
 62
     7
  6
CONTINUOUS
  0
LAYER
  2
27
 70
     0
 62
     7
  6
CONTINUOUS
  0
LAYER
  2
28
 70
     0
 62
     7
  6
CONTINUOUS
  0
LAYER
  2
29
 70
     0
 62
     7
  6
CONTINUOUS
  0
LAYER
  2
30
 70
     0
 62
     7
  6
CONTINUOUS
  0
LAYER
  2
31
 70
     0
 62
     7
  6
CONTINUOUS
  0
ENDTAB
  0
ENDSEC
  0
SECTION
  2
ENTITIES
  0
LINE
  8
0
  6
CONTINUOUS
 62
0
 10
0
 20
0
 30
0.0
 11
4.35503675049366
 21
1.89055897554921
 31
0.0
  0
LINE
  8
0
  6
CONTINUOUS
 62
0
 10
4.32202606607965
 20
1.9296032295665
 30
0.0
 11
9.45696191084659
 21
2.03779332879614
 31
0.0
  0
LINE
  8
0
  6
CONTINUOUS
 62
0
 10
14.8402498431601
 20
1.39709808351299
 30
0.0
 11
14.3865727388398
 21
2.02042592493806
 31
0.0
  0
LINE
  8
0
  6
CONTINUOUS
 62
0
 10
9.4200542459043
 20
2.07317670520025
 30
0.0
 11
14.4221247402192
 21
1.98368066326854
 31
0.0
  0
ARC
  8
3
  6
CONTINUOUS
 62
3
 10
13
 20
2.93749999999997
 30
0.0
 40
1.56249999999999
 50
179.999999999998
 51
223.926064386638
  0
ARC
  8
3
  6
CONTINUOUS
 62
3
 10
13
 20
2.93750000000005
 30
0.0
 40
2.25
 50
359.999999999998
 51
177.453433666864
  0
ARC
  8
3
  6
CONTINUOUS
 62
3
 10
13
 20
2.93749999999997
 30
0.0
 40
2.25
 50
179.999999999999
 51
319.91239354601
  0
ARC
  8
3
  6
CONTINUOUS
 62
3
 10
13
 20
2.93750000000004
 30
0.0
 40
1.5625
 50
359.999999999998
 51
180
  0
ARC
  8
3
  6
CONTINUOUS
 62
3
 10
13
 20
2.93749999999999
 30
0.0
 40
1.5625
 50
223.926064386638
 51
326.369160922664
  0
ARC
  8
3
  6
CONTINUOUS
 62
3
 10
2.99999999999999
 20
2.93749999999997
 30
0.0
 40
1.56249999999999
 50
179.999999999998
 51
223.002431439103
  0
ARC
  8
3
  6
CONTINUOUS
 62
3
 10
7.99999999999999
 20
2.93749999999997
 30
0.0
 40
1.56249999999999
 50
179.999999999998
 51
231.852494772288
  0
ARC
  8
3
  6
CONTINUOUS
 62
3
 10
8
 20
2.93749999999996
 30
0.0
 40
2.25
 50
179.999999999998
 51
359.999999999998
  0
ARC
  8
3
  6
CONTINUOUS
 62
3
 10
8
 20
2.93750000000004
 30
0.0
 40
1.5625
 50
359.999999999998
 51
180
  0
ARC
  8
3
  6
CONTINUOUS
 62
3
 10
8.00000000000002
 20
2.93749999999999
 30
0.0
 40
1.5625
 50
231.852494772288
 51
328.52266495048
  0
ARC
  8
3
  6
CONTINUOUS
 62
3
 10
3
 20
2.93749999999996
 30
0.0
 40
2.25
 50
179.999999999998
 51
359.999999999998
  0
ARC
  8
3
  6
CONTINUOUS
 62
3
 10
3
 20
2.93750000000004
 30
0.0
 40
1.5625
 50
359.999999999998
 51
180
  0
ARC
  8
3
  6
CONTINUOUS
 62
3
 10
3.00000000000002
 20
2.93749999999999
 30
0.0
 40
1.5625
 50
223.002431439103
 51
322.528202149428
  0
ARC
  8
3
  6
CONTINUOUS
 62
3
 10
3.00000000000005
 20
2.93750000000002
 30
0.0
 40
1.56249999999997
 50
322.528202149428
 51
7.95138670365879E-14
  0
ARC
  8
3
  6
CONTINUOUS
 62
3
 10
8.00000000000005
 20
2.93750000000002
 30
0.0
 40
1.56249999999997
 50
328.52266495048
 51
6.67916483107339E-14
  0
ARC
  8
3
  6
CONTINUOUS
 62
3
 10
13
 20
2.93750000000002
 30
0.0
 40
1.56249999999997
 50
326.369160922663
 51
360
  0
ARC
  8
3
  6
CONTINUOUS
 62
3
 10
13.0000000000001
 20
2.93750000000002
 30
0.0
 40
2.24999999999995
 50
319.91239354601
 51
6.67916483107339E-14
  0
LINE
  8
3
  6
CONTINUOUS
 62
3
 10
5.32332979710706
 20
3.01319834882797
 30
0.0
 11
5.24777746997395
 21
3.03748222580804
 31
0.0
  0
LINE
  8
3
  6
CONTINUOUS
 62
3
 10
5.32444098162538
 20
2.96321069766325
 30
0.0
 11
5.25
 21
2.93750000000001
 31
0.0
  0
ARC
  8
3
  6
CONTINUOUS
 62
3
 10
3
 20
2.93750000000002
 30
0.0
 40
2.25
 50
2.5468651188766
 51
180
  0
LINE
  8
3
  6
CONTINUOUS
 62
3
 10
5.75222239683568
 20
3.03747923140774
 30
0.0
 11
5.32332979710706
 21
3.01319834882797
 31
0.0
  0
LINE
  8
3
  6
CONTINUOUS
 62
3
 10
5.75
 20
2.93750000000001
 30
0.0
 11
5.32444098162538
 21
2.96321069766325
 31
0.0
  0
LINE
  8
3
  6
CONTINUOUS
 62
3
 10
10.3233310522523
 20
3.01308922734843
 30
0.0
 11
10.247777412917
 21
3.03748350854117
 31
0.0
  0
LINE
  8
3
  6
CONTINUOUS
 62
3
 10
10.3244420424886
 20
2.96310157186535
 30
0.0
 11
10.25
 21
2.93750000000001
 31
0.0
  0
ARC
  8
3
  6
CONTINUOUS
 62
3
 10
8
 20
2.93750000000001
 30
0.0
 40
2.25
 50
2.54689781570568
 51
177.453211208293
  0
LINE
  8
3
  6
CONTINUOUS
 62
3
 10
10.7522220086698
 20
3.0374705041081
 30
0.0
 11
10.3233310522523
 21
3.01308922734843
 31
0.0
  0
LINE
  8
3
  6
CONTINUOUS
 62
3
 10
10.75
 20
2.93750000000001
 30
0.0
 11
10.3244420424886
 21
2.96310157186535
 31
0.0
  0
LINE
  8
9
  6
CONTINUOUS
 62
9
 10
14.7950109508994
 20
1.42092247614473
 30
0.0
 11
14.7213866025285
 21
1.48859414914718
 31
0.0
  0
LINE
  8
9
  6
CONTINUOUS
 62
9
 10
14.8402498431601
 20
1.39709808351299
 30
0.0
 11
14.7213866025285
 21
1.48859414914718
 31
0.0
  0
LINE
  8
9
  6
CONTINUOUS
 62
9
 10
4.35503675049366
 20
1.89055897554921
 30
0.0
 11
4.24008263897492
 21
1.98692054592318
 31
0.0
  0
LINE
  8
9
  6
CONTINUOUS
 62
9
 10
4.32202606607965
 20
1.9296032295665
 30
0.0
 11
4.24008263897492
 21
1.98692054592318
 31
0.0
  0
LINE
  8
9
  6
CONTINUOUS
 62
9
 10
9.4200542459043
 20
2.07317670520025
 30
0.0
 11
9.33257310403146
 21
2.1216230654002
 31
0.0
  0
LINE
  8
9
  6
CONTINUOUS
 62
9
 10
9.45696191084659
 20
2.03779332879614
 30
0.0
 11
9.33257310403146
 21
2.1216230654002
 31
0.0
  0
LINE
  8
9
  6
CONTINUOUS
 62
9
 10
14.3865727388398
 20
2.02042592493806
 30
0.0
 11
14.3009738448491
 21
2.07212533835429
 31
0.0
  0
LINE
  8
9
  6
CONTINUOUS
 62
9
 10
14.4221247402192
 20
1.98368066326854
 30
0.0
 11
14.3009738448491
 21
2.07212533835429
 31
0.0
  0
ENDSEC
  0
EOF
